<?xml version="1.0" encoding="utf-8"?>
<svg version="1.1" id="Layer_1" xmlns="http://www.w3.org/2000/svg" xmlns:xlink="http://www.w3.org/1999/xlink" x="0px" y="0px"
	 viewBox="0 0 367 96" enable-background="new 0 0 367 96" xml:space="preserve">
<path fill="#00AD8E" d="M109.9,75c0,3.8,2.9,5.3,6.5,5.3c4,0,5.4-1.9,5.4-3.7c0-1.9-1.1-2.7-2.1-3c-1.8-0.7-4.1-1.1-7.6-2
	c-4.4-1.1-5.7-3.7-5.7-6.3c0-4.9,4.7-7.3,9.4-7.3c5.4,0,9.8,2.7,9.8,7.9h-4.5c-0.2-3.2-2.4-4.4-5.5-4.4c-2.1,0-4.7,0.7-4.7,3.2
	c0,1.7,1.2,2.7,3.1,3.2c0.4,0.1,6.1,1.5,7.4,1.9c3.4,1,5,3.7,5,6.3c0,5.5-5.1,7.7-10.2,7.7c-5.9,0-10.6-2.7-10.7-8.8H109.9z"/>
<path fill="#00AD8E" d="M146.4,61.5c5.5,0,7.8,4.7,7.8,9.4c0,4.7-2.3,9.4-7.8,9.4c-5.5,0-7.8-4.7-7.8-9.4
	C138.6,66.2,140.9,61.5,146.4,61.5z M146.4,58c-7.7,0-12.3,5.9-12.3,12.9c0,7.1,4.6,12.9,12.3,12.9c7.7,0,12.3-5.9,12.3-12.9
	C158.6,63.9,154,58,146.4,58z"/>
<path fill="#00AD8E" d="M167.9,58.6h4.5v21h13v3.7h-17.5V58.6z"/>
<path fill="#00AD8E" d="M193.5,58.6h4.5V73c0,3.3,0.2,7.2,6,7.2c5.8,0,6-3.8,6-7.2V58.6h4.5v15.8c0,6.3-4.2,9.5-10.5,9.5
	c-6.3,0-10.5-3.1-10.5-9.5V58.6z"/>
<path fill="#00AD8E" d="M222.5,58.6h20.8v3.7h-8.2v21h-4.5v-21h-8.1V58.6z"/>
<path fill="#00AD8E" d="M251.4,58.6h4.5v24.7h-4.5V58.6z"/>
<path fill="#00AD8E" d="M277.5,61.5c5.5,0,7.8,4.7,7.8,9.4c0,4.7-2.3,9.4-7.8,9.4c-5.5,0-7.8-4.7-7.8-9.4
	C269.7,66.2,272,61.5,277.5,61.5z M277.5,58c-7.7,0-12.3,5.9-12.3,12.9c0,7.1,4.6,12.9,12.3,12.9c7.7,0,12.3-5.9,12.3-12.9
	C289.8,63.9,285.2,58,277.5,58z"/>
<path fill="#00AD8E" d="M298.9,58.6h4.7l11.7,18.2h0.1V58.6h4.3v24.7H315l-11.7-18.2h-0.1v18.2h-4.3V58.6z"/>
<path fill="#00AD8E" d="M335.2,75c0,3.8,2.9,5.3,6.5,5.3c4,0,5.4-1.9,5.4-3.7c0-1.9-1.1-2.7-2.1-3c-1.8-0.7-4.1-1.1-7.7-2
	c-4.4-1.1-5.7-3.7-5.7-6.3c0-4.9,4.7-7.3,9.4-7.3c5.4,0,9.8,2.7,9.8,7.9h-4.5c-0.2-3.2-2.4-4.4-5.5-4.4c-2.1,0-4.7,0.7-4.7,3.2
	c0,1.7,1.2,2.7,3.1,3.2c0.4,0.1,6.1,1.5,7.4,1.9c3.4,1,5,3.7,5,6.3c0,5.5-5.1,7.7-10.2,7.7c-5.9,0-10.6-2.7-10.7-8.8H335.2z"/>
<g>
	<path fill="#005A9C" d="M119.7,25.2h12.9v17.4h-4l-0.8-4c-1.5,1.9-4.2,5.3-10.6,4.9c-5.8-0.3-7.9-2.7-9.4-4.1
		c-7.5-7.3-6.5-23.8,4.4-28.5c1.3-0.6,3.4-1.2,6.1-1.2c3.1,0,7.3,0.3,10.6,3.5c3.7,3.7,3.5,6.5,3.7,7.3h-6.1
		c-1.1-3.8-4.4-5.3-7.9-5.3c-2.2,0-3.8,0.6-5.7,1.8c-4.1,3.4-4.3,11.6-2.5,15.3c1.3,2.7,3.7,5.4,7.4,5.8c2.3,0.2,5.4-0.6,7.3-3
		c1.8-2.1,1.8-3.6,1.8-4.5h-7.3V25.2z"/>
	<path fill="#005A9C" d="M147.2,23.4c1.5,0,3.3,0.7,4.4,2.7c0.5,0.9,1.2,2.7,1.2,4.7c0,2-0.7,3.8-1.2,4.7c-1.1,2-2.9,2.7-4.4,2.7
		c-1.5,0-3.3-0.7-4.4-2.7c-0.5-0.9-1.1-2.7-1.1-4.7c0-2,0.7-3.8,1.1-4.7C143.9,24.1,145.6,23.4,147.2,23.4z M147.2,43.5
		c3.1,0,6.1-1,8.3-2.9c2.4-2.2,3.5-5.9,3.5-9.8c0-3.9-1.1-7.6-3.5-9.8c-2.1-1.9-5.2-2.9-8.3-2.9c-3.1,0-6.1,1-8.3,2.9
		c-2.4,2.2-3.5,5.9-3.5,9.8c0,3.9,1.1,7.6,3.5,9.8C141,42.5,144.1,43.5,147.2,43.5z"/>
	<path fill="#005A9C" d="M172.4,23.4c1.5,0,3.3,0.7,4.4,2.7c0.5,0.9,1.1,2.7,1.1,4.7c0,2-0.7,3.8-1.1,4.7c-1.1,2-2.9,2.7-4.4,2.7
		c-1.5,0-3.3-0.7-4.4-2.7c-0.5-0.9-1.2-2.7-1.2-4.7c0-2,0.7-3.8,1.2-4.7C169.1,24.1,170.9,23.4,172.4,23.4z M172.4,43.5
		c3.1,0,6.1-1,8.3-2.9c2.4-2.2,3.5-5.9,3.5-9.8c0-3.9-1.1-7.6-3.5-9.8c-2.1-1.9-5.2-2.9-8.3-2.9c-3.1,0-6.1,1-8.3,2.9
		c-2.4,2.2-3.5,5.9-3.5,9.8c0,3.9,1.2,7.6,3.5,9.8C166.3,42.5,169.3,43.5,172.4,43.5z"/>
	<path fill="#005A9C" d="M197.9,23.5c1.4,0,3,0.7,4.1,2.7c0.4,0.9,1.1,2.7,1.1,4.7c0,2-0.6,3.8-1.1,4.7c-1.1,2-2.7,2.7-4.1,2.7
		c-1.5,0-3.1-0.7-4.2-2.7c-0.4-0.9-1.1-2.7-1.1-4.7c0-2,0.6-3.8,1.1-4.7C194.8,24.2,196.5,23.5,197.9,23.5z M209.3,10.2h-6.2v11.5
		H203c-0.9-2-2.7-3.8-6.8-3.7c-2.3,0.1-6.2,0.8-8.2,5.4c-1.2,2.9-1.7,5.4-1.5,7.7c0.1,2.3,0.8,4.5,1.8,6.7c1.9,4,4.3,5.7,8.7,5.5
		c1.9-0.1,4.4-0.9,6.1-3.4h0.1v2.5h6.2V10.2z"/>
	<path fill="#005A9C" d="M232,20.1c0.1-2.6-2.1-5-6.6-5.1c-3.2,0-5.6,1.1-5.8,3.7c-0.2,2.2,0.6,2.7,2,3.2c0.7,0.8,6.9,1.8,8.1,2
		c1.8,0.3,5.6,1.1,7.6,3.2c3.7,3.9,2,11.5-2,14.1c-2.7,1.8-6.5,2.2-10.1,2.3c-1.6,0-5.5-0.5-7.9-2.3c-2.9-2.1-4.3-5.3-4.5-8.3h6.5
		c0,0.8,0.3,2.2,1.4,3.3c1.5,1.5,3.8,2,6.1,1.9c2.2,0,4.3-0.7,5.1-1.5c1.4-1.3,1.7-3.8,0.1-5.4c-2.1-2.2-8.5-2.2-12.6-3.6
		c-3.5-1.2-6.4-3.7-5.8-8.9c0.5-5.1,4.2-8.9,12.1-8.9c1.7,0,7.7,0.1,10.9,4.1c1.7,2.2,2.1,5.2,1.9,6.2H232z"/>
	<path fill="#005A9C" d="M253.3,23.4c1.5,0,3.3,0.7,4.4,2.7c0.5,0.9,1.2,2.7,1.2,4.7c0,2-0.7,3.8-1.2,4.7c-1.1,2-2.9,2.7-4.4,2.7
		c-1.5,0-3.3-0.7-4.4-2.7c-0.5-0.9-1.2-2.7-1.2-4.7c0-2,0.7-3.8,1.2-4.7C250,24.1,251.7,23.4,253.3,23.4z M253.3,43.5
		c3.1,0,6.1-1,8.3-2.9c2.4-2.2,3.5-5.9,3.5-9.8c0-3.9-1.2-7.6-3.5-9.8c-2.1-1.9-5.2-2.9-8.3-2.9c-3.1,0-6.1,1-8.3,2.9
		c-2.4,2.2-3.5,5.9-3.5,9.8c0,3.9,1.2,7.6,3.5,9.8C247.1,42.5,250.2,43.5,253.3,43.5z"/>
	<path fill="#005A9C" d="M288.5,42.5h-6.2v-3h-0.1c-1.7,3-3.7,3.7-5.8,4c-3.4,0-9-0.4-9.2-8.3V18.5h6.2v14.9
		c-0.1,2.1-0.1,4.8,4.5,4.6c3.8-0.4,4.4-2.5,4.5-4V18.5h6.2V42.5z"/>
	<path fill="#005A9C" d="M291.4,18.5h6.2v4.6h0.1c0.4-1.4,0.7-2.3,2.9-3.8c1.1-0.8,2.5-1.6,4.4-1.3v6.3c-2.7-0.3-6.6-0.7-7.4,4.6
		v13.5h-6.2V18.5z"/>
	<path fill="#005A9C" d="M321.2,27.4c-0.9-3.8-2.7-3.8-4.6-3.9c-2.1-0.1-3.6,1.2-4.3,3.5c-0.2,0.7-0.9,4.1-0.2,7
		c1,3.8,2.6,4.3,4.6,4.3c1.5,0.1,3.5-0.2,4.5-4.2h5.9c0,3.3-2.9,6.5-3.8,7.2c-1.8,1.5-3.1,2-7,2.2c-7.5,0.3-10.1-5.8-10.6-9.3
		c-0.3-2.1-0.5-6.2,0.8-9.3c2.8-6.4,6.1-6.5,10-6.8c2.4-0.1,5,0.4,6.3,1.3c2.7,1.7,4.2,6.1,4.2,8H321.2z"/>
	<path fill="#005A9C" d="M335,28.3c0-2.3,1.4-5.2,5.2-5c3.7,0.2,4.3,3.2,4.3,5H335z M350.9,32.4c0.1-2.9,0.1-6.1-2-9.6
		c-1.5-2.4-4.4-4.7-9.1-4.7c-2.7,0-9.2,0.4-10.8,9.8c-0.3,1.9-0.3,3.7-0.2,5.1c0.1,1.5,0.4,2.5,0.4,2.9c0.6,2.1,2.1,4.2,4.3,5.7
		c1.7,1.1,3.9,1.8,6.2,1.8c4.2,0,9.9-3.1,10.9-7.8h-6.1c-0.3,1.2-1.8,2.3-3.6,2.7c-1.8,0.3-3.8-0.2-5.2-2.1
		c-0.9-1.2-0.9-2.6-0.8-3.8H350.9z"/>
</g>
<g>
	<path fill="#005A9C" d="M50.2,51.7c1.2,1.9,2.4,3.4,2.9,4.3c2,4,2.3,8.3,1.8,15.3c-0.6,7.8-7.7,15.5-7.7,15.5l4.9,4.3l40.7-41.5
		L65.6,22.3c0,0-2.3,0.3-4.7,1.4c-2.7,1.3-6.4,3.9-6.4,3.9c-2.9,2.5-6.1,5.5-7.1,13.4c-0.3,2-0.2,3.7,0.2,5.3c0,0,0.6,1.8,1.1,2.9
		C49.1,50.2,50.2,51.7,50.2,51.7z"/>
	<path fill="#00AD8E" d="M49.7,52c1,4.7,0.9,11.6-0.4,17.5c-1.8,7.8-10.2,10.4-10.2,10.4L9.7,49.7L50.4,8.6c0,0,2.4,0.9,2.7,2.7
		c0.6,3.5-0.3,4.5-1.6,7.4c-1.2,2.7-6.6,9.2-7.4,16c-0.7,6,1.2,8.7,3.2,11.8c0,0,0.7,1.1,1.2,2.3C49.1,50,49.7,52,49.7,52z"/>
</g>
<line fill="#005A9C" stroke="#005A9C" x1="104.3" y1="50.4" x2="352.4" y2="50.4"/>
<path fill="#005A9C" d="M355.6,42.8c-1.6,0-3-1.3-3-3c0-1.6,1.3-3,3-3c1.6,0,3,1.3,3,3C358.6,41.5,357.3,42.8,355.6,42.8z
	 M355.6,43.5c2,0,3.6-1.6,3.6-3.7c0-2-1.6-3.6-3.6-3.6c-2,0-3.7,1.6-3.7,3.6C352,41.8,353.6,43.5,355.6,43.5z M356.5,40.1
	c0.7,0,1.1-0.3,1.1-1.1c0-0.4-0.1-0.8-0.5-1c-0.3-0.2-0.7-0.2-1.1-0.2h-1.9v3.9h0.8v-1.7h0.8l0.9,1.7h0.9L356.5,40.1z M354.9,39.6
	v-1.1h1c0.4,0,0.9,0,0.9,0.5c0,0.5-0.3,0.6-0.7,0.6H354.9z"/>
</svg>
